<svg width="290" height="50" fill="none" xmlns="http://www.w3.org/2000/svg"><g filter="url(#a)" stroke="#4C4CFF" stroke-linecap="round" stroke-linejoin="round"><path d="M159.513 37.633c.5-.613.049-1.493-.743-1.506-10.106-.167-18.558.02-29.012.656-.791.048-1.203.948-.675 1.539A19.957 19.957 0 0 0 144.004 45c6.256 0 11.841-2.87 15.509-7.367ZM126.643 15.058c-.391.68.184 1.471.963 1.378 11.567-1.388 20.092-1.802 32.182-1.066.787.048 1.316-.783.88-1.439C157.083 8.548 150.958 5 144.004 5c-7.428 0-13.911 4.048-17.361 10.058Z"/></g><g filter="url(#b)" stroke="#4C4CFF" stroke-linecap="round" stroke-linejoin="round"><path d="M159.513 37.633c.5-.613.049-1.493-.743-1.506-10.106-.167-18.558.02-29.012.656-.791.048-1.203.948-.675 1.539A19.957 19.957 0 0 0 144.004 45c6.256 0 11.841-2.87 15.509-7.367ZM126.643 15.058c-.391.68.184 1.471.963 1.378 11.567-1.388 20.092-1.802 32.182-1.066.787.048 1.316-.783.88-1.439C157.083 8.548 150.958 5 144.004 5c-7.428 0-13.911 4.048-17.361 10.058Z"/></g><path d="M159.513 37.633c.5-.613.049-1.493-.743-1.506-10.106-.167-18.558.02-29.012.656-.791.048-1.203.948-.675 1.539A19.957 19.957 0 0 0 144.004 45c6.256 0 11.841-2.87 15.509-7.367ZM126.643 15.058c-.391.68.184 1.471.963 1.378 11.567-1.388 20.092-1.802 32.182-1.066.787.048 1.316-.783.88-1.439C157.083 8.548 150.958 5 144.004 5c-7.428 0-13.911 4.048-17.361 10.058Z" stroke="#4C4CFF" stroke-linecap="round" stroke-linejoin="round"/><path d="M159.513 37.633c.5-.613.049-1.493-.743-1.506-10.106-.167-18.558.02-29.012.656-.791.048-1.203.948-.675 1.539A19.957 19.957 0 0 0 144.004 45c6.256 0 11.841-2.87 15.509-7.367ZM126.643 15.058c-.391.68.184 1.471.963 1.378 11.567-1.388 20.092-1.802 32.182-1.066.787.048 1.316-.783.88-1.439C157.083 8.548 150.958 5 144.004 5c-7.428 0-13.911 4.048-17.361 10.058Z" stroke="#fff" stroke-width=".5" stroke-linecap="round" stroke-linejoin="round"/><g filter="url(#c)"><path d="M163.859 27.466c.129-1.053-.687-1.954-1.744-2.04-12.88-1.038-22.931-1.2-36.225-.502-1.059.056-1.9.936-1.801 1.992.141 1.498.448 2.95.902 4.334.262.797 1.041 1.29 1.88 1.262 12.512-.434 22.189-.465 34.325-.137.839.022 1.615-.477 1.87-1.277.373-1.168.641-2.383.793-3.632Z" stroke="#E33CD5" stroke-linecap="round" stroke-linejoin="round"/></g><g filter="url(#d)"><path d="M163.859 27.466c.129-1.053-.687-1.954-1.744-2.04-12.88-1.038-22.931-1.2-36.225-.502-1.059.056-1.9.936-1.801 1.992.141 1.498.448 2.95.902 4.334.262.797 1.041 1.29 1.88 1.262 12.512-.434 22.189-.465 34.325-.137.839.022 1.615-.477 1.87-1.277.373-1.168.641-2.383.793-3.632Z" stroke="#E33CD5" stroke-linecap="round" stroke-linejoin="round"/></g><path d="M163.859 27.466c.129-1.053-.687-1.954-1.744-2.04-12.88-1.038-22.931-1.2-36.225-.502-1.059.056-1.9.936-1.801 1.992.141 1.498.448 2.95.902 4.334.262.797 1.041 1.29 1.88 1.262 12.512-.434 22.189-.465 34.325-.137.839.022 1.615-.477 1.87-1.277.373-1.168.641-2.383.793-3.632Z" stroke="#E33CD5" stroke-linecap="round" stroke-linejoin="round"/><path d="M163.859 27.466c.129-1.053-.687-1.954-1.744-2.04-12.88-1.038-22.931-1.2-36.225-.502-1.059.056-1.9.936-1.801 1.992.141 1.498.448 2.95.902 4.334.262.797 1.041 1.29 1.88 1.262 12.512-.434 22.189-.465 34.325-.137.839.022 1.615-.477 1.87-1.277.373-1.168.641-2.383.793-3.632Z" stroke="#fff" stroke-width=".5" stroke-linecap="round" stroke-linejoin="round"/><g filter="url(#e)"><path d="M124 20.5c2.667-2 5.333-2 8 0s5.333 2 8 0 5.333-2 8 0 5.333 2 8 0 5.333-2 8 0" stroke="#0CC" stroke-linecap="round" stroke-linejoin="round"/></g><g filter="url(#f)"><path d="M124 20.5c2.667-2 5.333-2 8 0s5.333 2 8 0 5.333-2 8 0 5.333 2 8 0 5.333-2 8 0" stroke="#0CC" stroke-linecap="round" stroke-linejoin="round"/></g><path d="M124 20.5c2.667-2 5.333-2 8 0s5.333 2 8 0 5.333-2 8 0 5.333 2 8 0 5.333-2 8 0" stroke="#0CC" stroke-linecap="round" stroke-linejoin="round"/><path d="M124 20.5c2.667-2 5.333-2 8 0s5.333 2 8 0 5.333-2 8 0 5.333 2 8 0 5.333-2 8 0" stroke="#fff" stroke-width=".5" stroke-linecap="round" stroke-linejoin="round"/><g filter="url(#g)" stroke="#4C4CFF"><ellipse rx="1" ry=".75" transform="scale(1 -1) rotate(-27.688 -12.502 -298.427)"/><ellipse cx="152.708" cy="11.354" rx="1.5" ry="1" transform="rotate(15 152.708 11.354)"/><ellipse rx="1" ry=".75" transform="scale(1 -1) rotate(15 226.932 550.298)"/><ellipse cx="142.5" cy="12" rx="1.5" ry="1" transform="rotate(180 142.5 12)"/><ellipse cx="146.708" cy="8.354" rx="1.5" ry="1" transform="rotate(15 146.708 8.354)"/><ellipse rx="1" ry=".75" transform="matrix(1 0 0 -1 144 41.75)"/><ellipse cx="135.793" cy="10.583" rx="1.5" ry="1" transform="rotate(-27.688 135.793 10.583)"/></g><g filter="url(#h)" stroke="#4C4CFF"><ellipse rx="1" ry=".75" transform="scale(1 -1) rotate(-27.688 -12.502 -298.427)"/><ellipse cx="152.708" cy="11.354" rx="1.5" ry="1" transform="rotate(15 152.708 11.354)"/><ellipse rx="1" ry=".75" transform="scale(1 -1) rotate(15 226.932 550.298)"/><ellipse cx="142.5" cy="12" rx="1.5" ry="1" transform="rotate(180 142.5 12)"/><ellipse cx="146.708" cy="8.354" rx="1.5" ry="1" transform="rotate(15 146.708 8.354)"/><ellipse rx="1" ry=".75" transform="matrix(1 0 0 -1 144 41.75)"/><ellipse cx="135.793" cy="10.583" rx="1.5" ry="1" transform="rotate(-27.688 135.793 10.583)"/></g><ellipse rx="1" ry=".75" transform="scale(1 -1) rotate(-27.688 -12.502 -298.427)" stroke="#4C4CFF"/><ellipse cx="152.708" cy="11.354" rx="1.5" ry="1" transform="rotate(15 152.708 11.354)" stroke="#4C4CFF"/><ellipse rx="1" ry=".75" transform="scale(1 -1) rotate(15 226.932 550.298)" stroke="#4C4CFF"/><ellipse cx="142.5" cy="12" rx="1.5" ry="1" transform="rotate(180 142.5 12)" stroke="#4C4CFF"/><ellipse cx="146.708" cy="8.354" rx="1.5" ry="1" transform="rotate(15 146.708 8.354)" stroke="#4C4CFF"/><ellipse rx="1" ry=".75" transform="matrix(1 0 0 -1 144 41.75)" stroke="#4C4CFF"/><ellipse cx="135.793" cy="10.583" rx="1.5" ry="1" transform="rotate(-27.688 135.793 10.583)" stroke="#4C4CFF"/><ellipse rx="1" ry=".75" transform="scale(1 -1) rotate(-27.688 -12.502 -298.427)" stroke="#fff" stroke-width=".5"/><ellipse cx="152.708" cy="11.354" rx="1.5" ry="1" transform="rotate(15 152.708 11.354)" stroke="#fff" stroke-width=".5"/><ellipse rx="1" ry=".75" transform="scale(1 -1) rotate(15 226.932 550.298)" stroke="#fff" stroke-width=".5"/><ellipse cx="142.5" cy="12" rx="1.5" ry="1" transform="rotate(180 142.5 12)" stroke="#fff" stroke-width=".5"/><ellipse cx="146.708" cy="8.354" rx="1.5" ry="1" transform="rotate(15 146.708 8.354)" stroke="#fff" stroke-width=".5"/><ellipse rx="1" ry=".75" transform="matrix(1 0 0 -1 144 41.75)" stroke="#fff" stroke-width=".5"/><ellipse cx="135.793" cy="10.583" rx="1.5" ry="1" transform="rotate(-27.688 135.793 10.583)" stroke="#fff" stroke-width=".5"/><path d="M2.8 25.544c-.832 0-1.51-.24-2.032-.72C.256 24.334 0 23.672 0 22.84c0-1.099.432-1.893 1.296-2.384.416-.235.917-.352 1.504-.352h11.328V22.2h-10.8c-.587 0-.88.224-.88.672 0 .448.293.672.88.672l8.48.016c.832 0 1.504.245 2.016.736.523.49.784 1.152.784 1.984 0 1.12-.432 1.915-1.296 2.384-.405.224-.907.336-1.504.336H0v-2.096l11.28.016c.587 0 .88-.23.88-.688 0-.448-.293-.672-.88-.672l-8.48-.016ZM29.425 29h-8.064c-.939 0-1.616-.213-2.032-.64a2.038 2.038 0 0 1-.528-.944c-.064-.235-.096-.597-.096-1.088V22.2h-1.6v-2.096h1.6v-3.552h2.672v3.552h8.048V22.2h-8.048v3.472c0 .49.112.827.336 1.008.181.15.485.224.912.224h6.8V29ZM36.88 26.904h9.297V29h-9.648c-1.387 0-2.448-.39-3.184-1.168-.725-.79-1.088-1.883-1.088-3.28 0-1.397.363-2.485 1.088-3.264.736-.79 1.797-1.184 3.184-1.184h9.648V22.2H36.88c-.49 0-.896.139-1.216.416-.15.128-.341.427-.576.896l-.016.032h11.104v2H35.073l.016.048c.213.459.405.757.576.896.32.277.725.416 1.216.416ZM53.4 29c-2.048 0-3.365-.832-3.952-2.496a6.06 6.06 0 0 1-.336-2.016v-4.416h2.912v4.144c0 .693.214 1.237.64 1.632.342.32.832.48 1.472.48h8.368V29H53.4ZM69.818 29c-2.048 0-3.366-.832-3.952-2.496a6.058 6.058 0 0 1-.336-2.016v-4.416h2.912v4.144c0 .693.213 1.237.64 1.632.341.32.832.48 1.472.48h8.368V29h-9.104ZM82.555 22.2v-2.096h10.672c1.056 0 1.894.277 2.512.832.384.341.646.741.784 1.2.096.341.144.821.144 1.44V29h-11.92c-.874 0-1.562-.24-2.064-.72-.501-.48-.752-1.152-.752-2.016 0-.864.25-1.53.752-2 .512-.48 1.2-.72 2.064-.72h9.248v-.08c0-.661-.245-1.061-.736-1.2-.15-.043-.378-.064-.688-.064H82.555Zm11.44 4.704v-1.36h-8.544c-.565 0-.848.23-.848.688 0 .448.283.672.848.672h8.544ZM110.182 23.24c0-.299-.095-.533-.287-.704-.139-.128-.352-.192-.64-.192l-6.641-.016V29h-2.672v-8.896l9.76-.032c1.046 0 1.846.293 2.401.88.501.533.751 1.147.751 1.84v.928h-2.672v-.48ZM185.232 30H174V17.552h2.672v3.552h8.56c1.813 0 3.067.672 3.76 2.016.341.661.512 1.472.512 2.432 0 1.93-.661 3.243-1.984 3.936-.651.341-1.413.512-2.288.512Zm-.352-6.672h-8.208v4.448h8.208c.619 0 1.088-.224 1.408-.672.277-.384.416-.901.416-1.552 0-.65-.139-1.168-.416-1.552-.32-.448-.789-.672-1.408-.672ZM194.219 26.832c0 .63.309.944.928.944h8.096v-6.672h2.672V30h-11.2c-1.088 0-1.888-.283-2.4-.848s-.768-1.19-.768-1.872v-6.176h2.672v5.728ZM218.756 24.24c0-.299-.096-.533-.288-.704-.139-.128-.352-.192-.64-.192l-6.64-.016V30h-2.672v-8.896l9.76-.032c1.045 0 1.845.293 2.4.88.501.533.752 1.147.752 1.84v.928h-2.672v-.48ZM240.311 21.12v9.136c0 1.045-.304 1.861-.912 2.448-.608.587-1.387.88-2.336.88l-12.368-.032v-2.08l11.888.016c.416 0 .704-.123.864-.368.128-.192.192-.507.192-.944V30h-9.648c-1.387 0-2.448-.39-3.184-1.168-.726-.79-1.088-1.883-1.088-3.28 0-1.397.362-2.485 1.088-3.264.736-.79 1.797-1.184 3.184-1.184l12.32.016Zm-11.968 2.208c-.619 0-1.088.224-1.408.672-.278.384-.416.901-.416 1.552 0 .65.138 1.168.416 1.552.309.448.778.672 1.408.672l9.296-.032v-4.4l-9.296-.016ZM247.608 27.904h9.296V30h-9.648c-1.386 0-2.448-.39-3.184-1.168-.725-.79-1.088-1.883-1.088-3.28 0-1.397.363-2.485 1.088-3.264.736-.79 1.798-1.184 3.184-1.184h9.648V23.2h-9.296c-.49 0-.896.139-1.216.416-.149.128-.341.427-.576.896l-.016.032h11.104v2H245.8l.016.048c.214.459.406.757.576.896.32.277.726.416 1.216.416ZM269.584 24.24c0-.299-.096-.533-.288-.704-.139-.128-.352-.192-.64-.192l-6.64-.016V30h-2.672v-8.896l9.76-.032c1.045 0 1.845.293 2.4.88.501.533.752 1.147.752 1.84v.928h-2.672v-.48ZM277.347 26.544c-.832 0-1.509-.24-2.032-.72-.512-.49-.768-1.152-.768-1.984 0-1.099.432-1.893 1.296-2.384.416-.235.917-.352 1.504-.352h11.328V23.2h-10.8c-.587 0-.88.224-.88.672 0 .448.293.672.88.672l8.48.016c.832 0 1.504.245 2.016.736.523.49.784 1.152.784 1.984 0 1.12-.432 1.915-1.296 2.384-.405.224-.907.336-1.504.336h-11.808v-2.096l11.28.016c.587 0 .88-.23.88-.688 0-.448-.293-.672-.88-.672l-8.48-.016Z" fill="#fff"/><defs><filter id="a" x="122.012" y=".5" width="43.318" height="49" filterUnits="userSpaceOnUse" color-interpolation-filters="sRGB"><feFlood flood-opacity="0" result="BackgroundImageFix"/><feBlend in="SourceGraphic" in2="BackgroundImageFix" result="shape"/><feGaussianBlur stdDeviation="2" result="effect1_foregroundBlur_17812_2923"/></filter><filter id="b" x="122.012" y=".5" width="43.318" height="49" filterUnits="userSpaceOnUse" color-interpolation-filters="sRGB"><feFlood flood-opacity="0" result="BackgroundImageFix"/><feBlend in="SourceGraphic" in2="BackgroundImageFix" result="shape"/><feGaussianBlur stdDeviation="2" result="effect1_foregroundBlur_17812_2923"/></filter><filter id="c" x="119.581" y="20" width="48.792" height="17.013" filterUnits="userSpaceOnUse" color-interpolation-filters="sRGB"><feFlood flood-opacity="0" result="BackgroundImageFix"/><feBlend in="SourceGraphic" in2="BackgroundImageFix" result="shape"/><feGaussianBlur stdDeviation="2" result="effect1_foregroundBlur_17812_2923"/></filter><filter id="d" x="119.581" y="20" width="48.792" height="17.013" filterUnits="userSpaceOnUse" color-interpolation-filters="sRGB"><feFlood flood-opacity="0" result="BackgroundImageFix"/><feBlend in="SourceGraphic" in2="BackgroundImageFix" result="shape"/><feGaussianBlur stdDeviation="2" result="effect1_foregroundBlur_17812_2923"/></filter><filter id="e" x="119.5" y="14.5" width="49" height="12" filterUnits="userSpaceOnUse" color-interpolation-filters="sRGB"><feFlood flood-opacity="0" result="BackgroundImageFix"/><feBlend in="SourceGraphic" in2="BackgroundImageFix" result="shape"/><feGaussianBlur stdDeviation="2" result="effect1_foregroundBlur_17812_2923"/></filter><filter id="f" x="119.5" y="14.5" width="49" height="12" filterUnits="userSpaceOnUse" color-interpolation-filters="sRGB"><feFlood flood-opacity="0" result="BackgroundImageFix"/><feBlend in="SourceGraphic" in2="BackgroundImageFix" result="shape"/><feGaussianBlur stdDeviation="2" result="effect1_foregroundBlur_17812_2923"/></filter><filter id="g" x="129.885" y="2.813" width="28.795" height="44.187" filterUnits="userSpaceOnUse" color-interpolation-filters="sRGB"><feFlood flood-opacity="0" result="BackgroundImageFix"/><feBlend in="SourceGraphic" in2="BackgroundImageFix" result="shape"/><feGaussianBlur stdDeviation="2" result="effect1_foregroundBlur_17812_2923"/></filter><filter id="h" x="129.885" y="2.813" width="28.795" height="44.187" filterUnits="userSpaceOnUse" color-interpolation-filters="sRGB"><feFlood flood-opacity="0" result="BackgroundImageFix"/><feBlend in="SourceGraphic" in2="BackgroundImageFix" result="shape"/><feGaussianBlur stdDeviation="2" result="effect1_foregroundBlur_17812_2923"/></filter></defs></svg>